<svg viewBox="0 0 48 48" xml:space="preserve" xmlns="http://www.w3.org/2000/svg"><g fill="#a7f3d0" class="fill-241f20"><path d="M37.464 25.882h2.741l-.969-4.822z"></path><path d="M45.176 9H0v30h48V9h-2.824zM10.301 30.285l-2.287-8.648c-.299-.966-1.307-3.325-4.108-3.547v-.524l4.997.035h1.782l1.607 8.631 3.39-8.631h3.424l-5.347 12.685h-3.458zm7.479 0L20.471 17.6h3.215L20.96 30.285h-3.18zm12.683-.613c-.009.004-.016.005-.024.01-.29.229-.652.438-1.127.604-3.005 1.049-6.081-.594-6.081-.594l.699-2.796s1.748 1.503 4.019.908c2.271-.594.698-1.991.698-1.991l-1.118-.804s-2.48-1.502-2.621-2.551c-.14-1.048-.28-2.691 2.131-4.298s6.081-.28 6.081-.28l-.734 2.691s-3.81-1.767-4.368.559c.035.524.524 1.083 3.04 2.307 2.517 1.223 1.779 5.096-.595 6.235zm10.626.613-.429-2.132h-4.03l-.783 2.132h-3.46L37.804 17.6h3.6l2.69 12.685h-3.005z"></path></g></svg>