<svg viewBox="0 0 512 512" xml:space="preserve" xmlns="http://www.w3.org/2000/svg" enable-background="new 0 0 512 512"><path d="M350.766 266.705H117.498c-.695 7.762-4.167 14.756-9.39 19.977-5.245 5.247-12.239 8.695-19.999 9.414v76.574c7.76.718 14.754 4.191 19.976 9.412 5.245 5.247 8.718 12.24 9.413 20.001h233.268a32.366 32.366 0 0 1 9.412-19.976c5.246-5.246 12.241-8.72 19.977-9.438v-76.574a32.365 32.365 0 0 1-19.977-9.414c-5.221-5.22-8.694-12.214-9.412-19.976m-94.371 45.414a31.385 31.385 0 0 0-22.252-9.197 31.484 31.484 0 0 0-22.275 9.197 31.486 31.486 0 0 0-9.197 22.275c0 8.693 3.52 16.551 9.221 22.251a31.306 31.306 0 0 0 22.25 9.222c8.623 0 16.431-3.473 22.108-9.078l.144-.144c5.701-5.7 9.221-13.558 9.221-22.251a31.401 31.401 0 0 0-9.22-22.275zm-22.252-15.33c10.372 0 19.76 4.192 26.587 11.018 6.802 6.804 11.017 16.193 11.017 26.588 0 10.371-4.215 19.783-11.017 26.587l-.193.167C253.759 367.855 244.418 372 234.143 372c-10.396 0-19.808-4.217-26.611-11.019-6.802-6.804-10.994-16.216-10.994-26.587s4.217-19.784 10.994-26.588l.072-.071c6.803-6.754 16.193-10.946 26.539-10.946zm231.833-130.322c-12.36-12.357-29.463-20.023-48.337-20.023s-35.951 7.666-48.311 20.023c-12.383 12.359-20.024 29.461-20.024 48.335s7.642 35.953 20.001 48.312c12.383 12.384 29.46 20.023 48.334 20.023s35.977-7.64 48.337-20.023c12.381-12.358 20.023-29.438 20.023-48.312 0-18.802-7.593-35.832-19.857-48.19l-.166-.145zM343.27 218.563a65.567 65.567 0 0 1-.098-3.761c0-1.604.048-3.21.145-4.79H32.947v187.927h10.107V221.486a2.936 2.936 0 0 1 2.923-2.924H343.27zm2.561 15.976a74.175 74.175 0 0 1-2.036-10.109H48.924V412.381h10.107V237.486a2.943 2.943 0 0 1 2.946-2.947h283.854zm57.533 53.364c-14.826-2.897-28.096-10.18-38.372-20.455l-.071-.07a74.863 74.863 0 0 1-17.222-26.946H64.923v187.927h338.441V287.903zm31.808-109.914v36.405h15.593c.742 0 1.485.288 2.061.839a2.942 2.942 0 0 1 .047 4.144l-33.556 34.371a2.923 2.923 0 0 1-4.145-.096l-32.623-34.132c-.574-.551-.958-1.315-.958-2.179a2.944 2.944 0 0 1 2.946-2.947h15.593v-36.405a2.943 2.943 0 0 1 2.946-2.946h29.15a2.943 2.943 0 0 1 2.946 2.946zm-5.892 39.353V180.91h-23.258v36.432c0 1.605-1.341 2.921-2.946 2.921h-11.664l25.916 27.14 26.467-27.14h-11.568c-1.607 0-2.947-1.316-2.947-2.921zm-314.585 43.471h238.896a2.96 2.96 0 0 1 2.947 2.946c0 7.307 2.969 13.941 7.809 18.779 4.813 4.813 11.447 7.809 18.752 7.809a2.944 2.944 0 0 1 2.947 2.946v82.202a2.945 2.945 0 0 1-2.947 2.947 26.4 26.4 0 0 0-18.752 7.783c-4.84 4.838-7.809 11.473-7.809 18.803 0 1.604-1.343 2.946-2.947 2.946H114.695a2.96 2.96 0 0 1-2.946-2.946c0-7.305-2.994-13.965-7.809-18.779-4.813-4.813-11.473-7.807-18.778-7.807a2.945 2.945 0 0 1-2.946-2.947v-82.202a2.943 2.943 0 0 1 2.946-2.946c7.305 0 13.964-2.996 18.778-7.809 4.815-4.838 7.809-11.473 7.809-18.779a2.945 2.945 0 0 1 2.946-2.946zm121.101 84.551a5.023 5.023 0 0 0 2.779-1.604 4.492 4.492 0 0 0 1.053-2.945c0-1.008-.288-1.869-.886-2.611-.599-.72-1.581-1.271-2.946-1.678v8.838zm-3.281-24.024c-.886.313-1.581.816-2.083 1.559a3.886 3.886 0 0 0-.767 2.37c0 .79.216 1.534.695 2.228.455.672 1.197 1.223 2.155 1.652v-7.809zm-58.179 141.245a2.944 2.944 0 0 1-2.946-2.946 2.945 2.945 0 0 1 2.946-2.946h160.98a2.944 2.944 0 0 1 2.946 2.946 2.943 2.943 0 0 1-2.946 2.946h-160.98zm177.459 0a2.943 2.943 0 0 1-2.945-2.946 2.944 2.944 0 0 1 2.945-2.946h20.12a2.944 2.944 0 0 1 2.946 2.946 2.943 2.943 0 0 1-2.946 2.946h-20.12zm-322.847-.43a2.943 2.943 0 0 1-2.946-2.946 2.942 2.942 0 0 1 2.946-2.946h76.286c1.606 0 2.922 1.316 2.922 2.946 0 1.628-1.316 2.946-2.922 2.946H28.948zm80.909-306.346c1.149-1.126 3.017-1.102 4.143.048s1.126 3.019-.047 4.145l-11.544 11.329-.049.047c-.551.599-1.316.982-2.179.982a2.918 2.918 0 0 1-2.18-.982l-.047-.047-11.569-11.329a2.943 2.943 0 0 1-.047-4.145c1.149-1.149 3.016-1.174 4.167-.048l6.729 6.61v-58.322a2.945 2.945 0 0 1 2.946-2.946 2.96 2.96 0 0 1 2.946 2.946v58.322l6.731-6.61zm50.346 12.431a2.923 2.923 0 0 1 4.145.023 2.922 2.922 0 0 1-.024 4.144l-11.569 11.353-.047.048a2.979 2.979 0 0 1-2.179.958 2.926 2.926 0 0 1-2.18-.958l-.047-.048-11.569-11.353c-1.151-1.125-1.151-2.993-.024-4.144a2.92 2.92 0 0 1 4.143-.023l6.731 6.587V73.293c0-1.628 1.318-2.945 2.946-2.945s2.946 1.317 2.946 2.945v101.534l6.728-6.587zm36.432-20.934c1.174-1.125 3.018-1.125 4.167.024a2.973 2.973 0 0 1-.047 4.168l-11.569 11.328-.049.049a2.877 2.877 0 0 1-2.155.959c-.862 0-1.653-.36-2.204-.959l-.025-.049-11.567-11.328a2.971 2.971 0 0 1-.049-4.168 2.972 2.972 0 0 1 4.167-.024l6.731 6.587V52.359a2.942 2.942 0 0 1 2.946-2.944c1.604 0 2.921 1.315 2.921 2.944v101.533l6.733-6.586zM38.097 448.43c-1.605 0-2.921-1.318-2.921-2.946 0-1.629 1.316-2.946 2.921-2.946h232.645a2.943 2.943 0 0 1 2.946 2.946 2.944 2.944 0 0 1-2.946 2.946H38.097zm194.418-103.426v-9.437c-2.922-.837-5.079-2.107-6.444-3.833-1.365-1.699-2.06-3.76-2.06-6.202 0-2.468.792-4.527 2.323-6.203 1.559-1.678 3.619-2.636 6.181-2.899v-2.201h3.281v2.201c2.395.288 4.312 1.103 5.749 2.445 1.413 1.365 2.323 3.16 2.708 5.411l-5.726.744c-.36-1.774-1.269-2.971-2.73-3.594v8.791c3.641.981 6.108 2.251 7.401 3.783 1.318 1.557 1.988 3.569 1.988 5.989 0 2.73-.839 5.004-2.492 6.873s-3.952 3.019-6.898 3.473v4.217h-3.281v-4.168c-2.587-.313-4.694-1.27-6.323-2.874-1.605-1.605-2.635-3.882-3.09-6.825l5.868-.695c.239 1.197.695 2.227 1.341 3.113.671.864 1.389 1.485 2.204 1.891z" fill-rule="evenodd" clip-rule="evenodd" fill="#ffffff" class="fill-000000"></path></svg>