<svg viewBox="0 0 512 512" xml:space="preserve" xmlns="http://www.w3.org/2000/svg"><path d="M266.533 114.519c-55.518 0-100.687 45.168-100.687 100.687 0 16.021 3.858 31.964 11.153 46.104 1.713 3.325 5.803 4.627 9.126 2.915a6.773 6.773 0 0 0 2.914-9.126c-6.399-12.404-9.645-25.826-9.645-39.893 0-48.049 39.089-87.138 87.138-87.138s87.139 39.089 87.139 87.138c0 28.891-14.283 55.85-38.211 72.115a6.776 6.776 0 0 0 3.814 12.377c1.313 0 2.637-.38 3.803-1.172 27.642-18.791 44.143-49.938 44.143-83.32.001-55.519-45.167-100.687-100.687-100.687z" fill="#ffffff" class="fill-000000"></path><path d="M288.548 279.445c.806 0 1.625-.146 2.423-.452 26.231-10.056 43.854-35.689 43.854-63.788 0-37.657-30.635-68.292-68.292-68.292-37.656 0-68.294 30.635-68.294 68.292 0 17.505 6.616 34.151 18.63 46.875a6.77 6.77 0 0 0 9.575.276 6.77 6.77 0 0 0 .275-9.575c-9.628-10.201-14.932-23.546-14.932-37.576 0-30.185 24.559-54.743 54.745-54.743 30.186 0 54.744 24.558 54.744 54.743 0 22.527-14.129 43.076-35.156 51.138a6.777 6.777 0 0 0-3.901 8.751 6.78 6.78 0 0 0 6.329 4.351zM139.154 291.404a6.775 6.775 0 0 0 0-13.548H120.2a6.774 6.774 0 0 0-6.773 6.773v94.236a6.775 6.775 0 0 0 6.773 6.774h166.812c16.077 0 31.971-5.372 44.752-15.127l41.123-31.384c11.452-8.738 13.832-25.293 5.306-36.902-8.536-11.625-25.058-14.301-36.831-5.965l-21.052 14.91a6.776 6.776 0 0 0-1.612 9.445 6.778 6.778 0 0 0 9.444 1.612l21.053-14.911c5.78-4.096 13.891-2.776 18.077 2.928 4.187 5.699 3.019 13.824-2.603 18.113l-41.124 31.383c-10.436 7.964-23.408 12.349-36.533 12.349H170.657v-80.687h45.86c7.957 0 15.471 3.062 21.159 8.624 8.239 8.048 19.117 12.48 30.632 12.48h13.123c6.145 0 11.142 4.997 11.142 11.14 0 8.19-6.662 14.854-14.853 14.854h-47.532a6.775 6.775 0 0 0 0 13.547h47.532c15.66 0 28.401-12.741 28.401-28.401 0-13.611-11.076-24.688-24.69-24.688h-13.123c-7.956 0-15.471-3.063-21.162-8.623-8.233-8.051-19.111-12.482-30.629-12.482h-52.635a6.775 6.775 0 0 0-6.774 6.773v87.462h-30.134v-80.687h12.18z" fill="#ffffff" class="fill-000000"></path><path d="M266.533 264.991a6.775 6.775 0 0 0 6.774-6.774v-5.484c9.539-1.76 16.792-10.123 16.792-20.163 0-11.316-9.205-20.521-20.521-20.521h-6.074c-3.845 0-6.973-3.126-6.973-6.971s3.128-6.971 6.973-6.971h15.839a6.775 6.775 0 0 0 0-13.548h-6.035v-4.326a6.774 6.774 0 0 0-13.547 0v4.685c-9.532 1.767-16.777 10.127-16.777 20.161 0 11.314 9.205 20.519 20.521 20.519h6.074c3.845 0 6.973 3.128 6.973 6.973s-3.128 6.971-6.973 6.971H253.74a6.775 6.775 0 0 0 0 13.548h6.021v5.128a6.773 6.773 0 0 0 6.772 6.773zM438.971 425.09l-55.309-38.197a6.775 6.775 0 0 0-7.7 11.149l47.238 32.623-36.613 25.288V444.5a6.776 6.776 0 0 0-6.774-6.774H166.964v-14.123h212.849a6.775 6.775 0 0 0 0-13.547H160.189a6.774 6.774 0 0 0-6.773 6.773V444.5a6.774 6.774 0 0 0 6.773 6.773h212.849v17.59a6.775 6.775 0 0 0 10.624 5.574l55.309-38.199a6.775 6.775 0 0 0 0-11.148zM131.646 410.055h-30.093a6.775 6.775 0 0 0-6.774 6.773V444.5a6.775 6.775 0 0 0 6.774 6.773h30.093a6.774 6.774 0 0 0 6.773-6.773v-27.672a6.774 6.774 0 0 0-6.773-6.773zm-6.775 27.671h-16.544v-14.123h16.544v14.123zM73.008 410.055a6.775 6.775 0 0 0-6.774 6.773V444.5a6.775 6.775 0 0 0 13.548 0v-27.672a6.775 6.775 0 0 0-6.774-6.773zM73.029 86.91l55.309 38.199a6.748 6.748 0 0 0 3.844 1.2 6.775 6.775 0 0 0 3.856-12.348L88.8 81.335l36.613-25.288V67.5a6.776 6.776 0 0 0 6.774 6.774h212.849v14.123H132.188a6.776 6.776 0 0 0-6.774 6.774 6.776 6.776 0 0 0 6.774 6.774h219.623a6.775 6.775 0 0 0 6.773-6.774V67.5a6.774 6.774 0 0 0-6.773-6.774H138.962v-17.59a6.778 6.778 0 0 0-3.627-6 6.779 6.779 0 0 0-6.997.426l-55.309 38.2a6.773 6.773 0 0 0 0 11.148zM380.355 101.945h30.092a6.776 6.776 0 0 0 6.774-6.774V67.5a6.775 6.775 0 0 0-6.774-6.774h-30.092a6.776 6.776 0 0 0-6.775 6.774v27.671a6.775 6.775 0 0 0 6.775 6.774zm6.774-27.671h16.544v14.123h-16.544V74.274zM438.992 60.726a6.776 6.776 0 0 0-6.774 6.774v27.671c0 3.74 3.034 6.774 6.774 6.774s6.774-3.034 6.774-6.774V67.5a6.774 6.774 0 0 0-6.774-6.774z" fill="#ffffff" class="fill-000000"></path></svg>